<?xml version="1.0" encoding="utf-8"?>
<!-- Generator: Adobe Illustrator 22.1.0, SVG Export Plug-In . SVG Version: 6.00 Build 0)  -->
<svg version="1.1" xmlns="http://www.w3.org/2000/svg" xmlns:xlink="http://www.w3.org/1999/xlink" x="0px" y="0px"
	 viewBox="0 0 540 240" style="enable-background:new 0 0 540 240;" xml:space="preserve">
<style type="text/css">
	.st0{fill:#942A1F;}
	.st1{fill:#262D33;}
	.st2{fill:#F4F4F4;}
</style>
<g id="on_dark">
</g>
<g id="main">
	<g id="tire_1_">
		<path id="hubcap_1_" class="st0" d="M88.7,199c15.5,0,28.2-12.6,28.2-28.2H91.6c0,1.6-1.3,2.9-2.9,2.9s-2.9-1.3-2.9-2.9H60.6
			C60.6,186.4,73.2,199,88.7,199z M97.8,173.8l14.5,0.9c-0.9,5.9-4.1,11.1-8.5,14.7l-8-12.1C94.7,175.7,95.9,173.7,97.8,173.8z
			 M86.7,180.1c0.8-1.7,3.2-1.7,4,0l6.5,13c-2.6,1-5.5,1.6-8.5,1.6s-5.9-0.6-8.5-1.6L86.7,180.1z M79.7,173.8c1.8-0.1,3,1.9,2,3.5
			l-8,12.1c-4.4-3.6-7.6-8.8-8.5-14.7L79.7,173.8z"/>
		<path id="tread_1_" class="st1" d="M127.9,175.7v-4.8h-9.8c0,16.2-13.2,29.4-29.4,29.4s-29.4-13.2-29.4-29.4h-9.7v4.9l2.9,0.4
			c0.1,0.3,0.1,0.7,0.2,1l-2.7,1.2l3,9.2l2.9-0.6c0.2,0.3,0.3,0.6,0.5,0.9l-2.1,2l5.7,7.8l2.6-1.4c0.2,0.2,0.5,0.5,0.7,0.7l-1.4,2.6
			l7.8,5.7l2-2.2c0.3,0.2,0.6,0.3,0.9,0.5l-0.6,2.9l9.2,3l1.3-2.7c0.3,0.1,0.7,0.1,1,0.2l0.4,3h9.7l0.4-3c0.3,0,0.7-0.1,1-0.2
			l1.3,2.7l9.2-3l-0.6-3c0.3-0.1,0.6-0.3,0.9-0.5l2.1,2.2l7.8-5.7l-1.5-2.7c0.2-0.2,0.5-0.5,0.7-0.7l2.7,1.5l5.7-7.8l-2.2-2.1
			c0.2-0.3,0.3-0.6,0.4-0.9l3,0.6l3-9.2l-2.8-1.3c0.1-0.3,0.1-0.6,0.2-1L127.9,175.7z"/>
	</g>
	<path id="automotive_1_" class="st1" d="M147.8,206.8h-5.4l13.7-35.7h6.5l13,35.7h-5.5l-3.3-9h-15.7L147.8,206.8z M160.2,179.1
		l-0.9-3.1l-1,3.1l-5.4,14h12.4L160.2,179.1z M196.9,207.2c-8.2,0-14.1-3.1-14.1-10.8c0-0.6,0-25.3,0-25.3h5.2c0,0,0,24.2,0,24.9
		c0,4.2,3.1,6.6,9,6.6c5,0,8.6-2.4,8.6-6.6c0-0.7,0-25,0-25h5.2c0,0,0,25.1,0,25.6C210.9,203.7,205.1,207.2,196.9,207.2z
		 M235.9,175.8v31h-5.3v-31h-11.8v-4.7h29v4.7H235.9z M282.2,175.6c2.4,2.7,3.5,7.1,3.5,13.2c0,6.4-1.3,10.7-3.8,13.7
		c-2.3,3.2-6.5,4.8-12.3,4.8c-5.7,0-9.8-1.6-12.2-4.8c-2.5-2.9-3.8-7.4-3.8-13.6c0-5.9,1.1-10.3,3.5-13.1c2.5-3.3,6.5-5.2,12.5-5.2
		C275.6,170.6,279.6,172.3,282.2,175.6z M277.3,199.9c2.1-2.1,3.1-6.1,3.1-11c0-4.8-0.9-8.8-2.8-10.7c-1.9-1.9-4-2.9-8-2.9
		c-4,0-6.1,1.1-7.9,2.9c-1.8,1.9-2.8,5.9-2.8,10.7c0,5,1.1,9,3.3,11.2c1.6,1.6,3.8,2.5,7.3,2.5C273.3,202.6,275.6,201.6,277.3,199.9
		z M325.7,206.8v-27.5l-10,27.5h-5.4l-9.7-27.5v27.5h-4.9v-35.7h7.3l10.2,29l10.4-29h7.1v35.7H325.7z M369.1,175.6
		c2.4,2.7,3.5,7.1,3.5,13.2c0,6.4-1.3,10.7-3.8,13.7c-2.3,3.2-6.5,4.8-12.3,4.8c-5.7,0-9.8-1.6-12.2-4.8c-2.5-2.9-3.8-7.4-3.8-13.6
		c0-5.9,1.1-10.3,3.5-13.1c2.5-3.3,6.5-5.2,12.5-5.2C362.6,170.6,366.6,172.3,369.1,175.6z M364.2,199.9c2.1-2.1,3.1-6.1,3.1-11
		c0-4.8-0.9-8.8-2.8-10.7c-1.9-1.9-4-2.9-8-2.9c-4,0-6.1,1.1-7.9,2.9c-1.8,1.9-2.8,5.9-2.8,10.7c0,5,1.1,9,3.3,11.2
		c1.6,1.6,3.8,2.5,7.3,2.5C360.3,202.6,362.5,201.6,364.2,199.9z M395.6,175.8v31h-5.3v-31h-11.8v-4.7h29v4.7H395.6z M415.7,206.8
		v-35.7h5.3v35.7H415.7z M449.2,206.8h-6.4l-13.5-35.7h5.6l11.2,30.1l11.2-30.1h5.4L449.2,206.8z M470.9,206.8v-35.7h24.7v4.8H476
		v10.5h18.8v4.8H476V202h19.8v4.8H470.9z"/>
	<path id="wrench_red_1_" class="st0" d="M494.7,36.4h-27.5l-6.1,6.1l-6.1-6.1h-27.4l-8.4,8.4c-7.1-6.1-17-9.4-29.3-9.4
		c-13.3,0-24.4,3.8-32.1,10.5v-0.2l-9.4-9.4h-25.9l-6.4,6.4l-0.1-0.2l-8.9-6.2h-23.2l-2.5,2.5l-2.5-2.5h-57.6l-8.7,8.7
		c-6-5.7-14.6-8.7-24.8-8.7h-41l-1.9,1.9l-1.6-1.9h-27.5l-6.7,6.1l-7.1-6.1H75.3l-6.9,6.1l-6.8-6.1H33.4l-9.3,10.8l16.3,108.2l9.3,8
		h31.6l7.1-6l7,6h32.4l9.3-8.1l0.2-1.7v0.4l9.4,9.4h26.7l6.9-6.9l8.7,6.9h28.3l1.6-2.2l2.2,2.2h57.9l2.4-2.4l2.4,2.4h25.6l6.4-6.4
		l0.1,0.2l8.8,6.2h23.5l9.1-9.1c6.3,5.9,16.2,10.3,31.4,10.3c12.9,0,23.2-3.3,30.5-9.3l8.1,8.1h27.4l6.1-6.1l6.1,6.1h27.5l9.4-9.4
		V45.8L494.7,36.4z"/>
	<path id="wrench_grey_1_" class="st2" d="M127.8,154.1H95.4c0,0-6.2-39.7-7.2-51.7c-0.3,12.1-6.9,51.7-6.9,51.7H49.7L33.4,45.8
		h28.2c0,0,6.1,58.5,6.1,69.8c0-11.4,7.6-69.8,7.6-69.8h26.6c0,0,8.5,58.5,8.5,69.8c0-11.4,5.3-69.8,5.3-69.8h27.5L127.8,154.1z
		 M211.5,97.2c-2.2,4.9-4.9,7.6-7.7,8.8l13.7,48h-28.3l-10-41.2h-5.6v41.2h-26.7V45.8h41c9.4,0,16.7,3.1,20.8,9
		c3.8,5.2,6,13.2,6,23.7C214.5,87.2,213.3,93,211.5,97.2z M186,74c-0.8-2.2-2.8-3.9-5.4-3.9h-6.6c0,0,0,19.1,0,20.8
		c0.3,0,7.1-0.1,7.1-0.1c1.9,0,4.2-0.9,4.7-2.6c0.5-1.4,1.2-4.6,1.2-6.9C186.9,78.5,186.4,75.1,186,74z M221.3,154.1V45.8h57.6v25.1
		h-30.2v16.8h28.5v23.7h-28.5v18h30.5v24.5H221.3z M324.9,154.1l-15.3-42v42h-25.6V45.8h23.2l15.3,42.9V45.8h25.9v108.2H324.9z
		 M421.8,131.4c-1.8,14.5-12.2,23.9-33,23.9c-18.7,0-27.9-7.6-31.6-18.2c-3-8.3-3.9-21.7-3.9-37.4c0-15.2,0.8-22.8,2.8-33
		c2.7-14,15.9-21.8,33.6-21.8c19.8,0,30.2,9.2,31.9,26c0.5,4.3,0.7,13.6,0.7,17.8h-26.6c-0.1-4.6-0.3-10-0.7-13.4
		c-0.5-3.3-2.4-5.3-5.8-5.3c-3.5,0-5.6,2.3-6.1,5.6c-1.1,7.1-1.2,15.9-1.2,23.6c0,12.5,0.7,23.9,1.4,26.7c0.9,3.9,3.1,5,6.1,5
		c3.1,0,5.2-1.4,5.7-5.2c0.5-5,0.8-11.5,0.8-13.4h26.6C422.5,115.5,422.7,124.4,421.8,131.4z M467.1,154.1v-42.2h-12.2v42.2h-27.4
		V45.8h27.4v42.3h12.2V45.8h27.5v108.2H467.1z"/>
</g>
</svg>
